HIERARCHY
ROOT SpineBase
{
  OFFSET 0.000000 0.000000 0.000000
  CHANNELS 6 Xposition Yposition Zposition Zrotation Xrotation Yrotation
  JOINT SpineMid
  {
    OFFSET 0.000000 31.225859 0.000000
    CHANNELS 3 Zrotation Xrotation Yrotation
    JOINT SpineShoulder
    {
      OFFSET -0.989099 23.468249 -0.670040
      CHANNELS 3 Zrotation Xrotation Yrotation
      JOINT Neck
      {
        OFFSET -0.514604 7.810078 -0.483396
        CHANNELS 3 Zrotation Xrotation Yrotation
        JOINT Head
        {
          OFFSET -1.587670 11.765674 5.312003
          CHANNELS 3 Zrotation Xrotation Yrotation
          End Site
          {
            OFFSET 0 0 0
          }
        }
      }
      JOINT ShoulderLeft
      {
        OFFSET -8.588340 -3.239269 12.170738
        CHANNELS 3 Zrotation Xrotation Yrotation
        JOINT ElbowLeft
        {
          OFFSET -1.705463 -14.856075 -24.338684
          CHANNELS 3 Zrotation Xrotation Yrotation
          JOINT WristLeft
          {
            OFFSET -18.446941 -13.113884 -15.927990
            CHANNELS 3 Zrotation Xrotation Yrotation
            JOINT HandLeft
            {
              OFFSET -6.212371 -4.419955 -4.915569
              CHANNELS 3 Zrotation Xrotation Yrotation
              JOINT HandTipLeft
              {
                OFFSET -5.260708 -3.042734 -2.430191
                CHANNELS 3 Zrotation Xrotation Yrotation
                End Site
                {
                  OFFSET 0 0 0
                }
              }
              JOINT ThumbLeft
              {
                OFFSET -1.623941 3.281896 -3.733868
                CHANNELS 3 Zrotation Xrotation Yrotation
                End Site
                {
                  OFFSET 0 0 0
                }
              }
            }
          }
        }
      }
      JOINT ShoulderRight
      {
        OFFSET 3.571221 -4.577257 -12.670054
        CHANNELS 3 Zrotation Xrotation Yrotation
        JOINT ElbowRight
        {
          OFFSET -1.076714 -24.381933 -5.789850
          CHANNELS 3 Zrotation Xrotation Yrotation
          JOINT WristRight
          {
            OFFSET -5.849165 -25.703106 -0.860981
            CHANNELS 3 Zrotation Xrotation Yrotation
            JOINT HandRight
            {
              OFFSET -0.913132 -9.210375 1.766621
              CHANNELS 3 Zrotation Xrotation Yrotation
              JOINT HandTipRight
              {
                OFFSET -3.058272 -6.903242 0.338584
                CHANNELS 3 Zrotation Xrotation Yrotation
                End Site
                {
                  OFFSET 0 0 0
                }
              }
              JOINT ThumbRight
              {
                OFFSET 4.625491 0.349346 0.589905
                CHANNELS 3 Zrotation Xrotation Yrotation
                End Site
                {
                  OFFSET 0 0 0
                }
              }
            }
          }
        }
      }
    }
  }
  JOINT HipLeft
  {
    OFFSET -3.121748 -0.371634 -1.257043
    CHANNELS 3 Zrotation Xrotation Yrotation
    JOINT KneeLeft
    {
      OFFSET -3.558684 -43.908958 -5.460029
      CHANNELS 3 Zrotation Xrotation Yrotation
      JOINT AnkleLeft
      {
        OFFSET 5.419387 -43.810540 -3.371737
        CHANNELS 3 Zrotation Xrotation Yrotation
        JOINT FootLeft
        {
          OFFSET -0.580596 -0.568001 2.096307
          CHANNELS 3 Zrotation Xrotation Yrotation
          End Site
          {
            OFFSET 0 0 0
          }
        }
      }
    }
  }
  JOINT HipRight
  {
    OFFSET 2.623811 2.076830 -6.215895
    CHANNELS 3 Zrotation Xrotation Yrotation
    JOINT KneeRight
    {
      OFFSET -3.816955 -39.481680 -3.141985
      CHANNELS 3 Zrotation Xrotation Yrotation
      JOINT AnkleRight
      {
        OFFSET 4.614459 -42.403766 3.381999
        CHANNELS 3 Zrotation Xrotation Yrotation
        JOINT FootRight
        {
          OFFSET -6.591058 -5.221958 -6.799750
          CHANNELS 3 Zrotation Xrotation Yrotation
          End Site
          {
            OFFSET 0 0 0
          }
        }
      }
    }
  }
}
MOTION
Frames: 10
Frame Time: 0.033333
-53.394664 88.206134 386.508700 5.346341 0.251123 43.950339 -1.829974 1.543518 -43.846966 -0.746167 -0.168844 0.046053 21.280540 5.664991 -10.749895 0.000000 0.000000 0.000000 -1.817799 -0.495896 -0.714806 1.196926 0.104999 -0.706395 0.433478 -1.606660 2.086632 0.578401 2.439240 -3.560659 0.000000 0.000000 0.000000 0.000000 0.000000 0.000000 -2.284731 7.214768 -0.415327 9.375674 -8.852165 1.708303 8.437923 2.134910 2.821505 -2.593677 -0.441979 -2.430258 0.000000 0.000000 0.000000 0.000000 0.000000 0.000000 10.356674 -7.447167 -45.783205 -26.305319 -3.404280 2.165391 76.122943 41.318815 -118.656058 0.000000 0.000000 0.000000 -1.904969 0.256383 -44.125403 -1.849968 0.527919 0.339280 33.638216 -32.485695 23.697012 0.000000 0.000000 0.000000
-52.633259 86.531105 385.971496 7.643485 1.664458 34.082082 -2.117195 1.098667 -33.979864 -0.693786 -0.214534 0.151535 25.108985 4.316407 -13.377710 0.000000 0.000000 0.000000 -3.506791 -4.346660 -1.861534 7.269380 -0.531706 -4.109331 3.209757 -3.541496 3.741005 1.021432 4.975288 -5.069462 0.000000 0.000000 0.000000 0.000000 0.000000 0.000000 -7.385321 8.159335 0.027468 13.044578 -10.298701 1.634416 10.668153 2.895538 3.354490 0.297225 2.675242 -5.516754 0.000000 0.000000 0.000000 0.000000 0.000000 0.000000 9.160424 -3.526236 -36.411536 -23.535681 -13.004161 0.290016 87.672508 40.687036 -137.784129 0.000000 0.000000 0.000000 -5.687632 1.948848 -34.231010 0.770022 -0.589898 0.322531 44.601190 -37.083162 34.980269 0.000000 0.000000 0.000000
-51.992553 85.746298 385.601008 10.409614 3.735748 16.153608 -2.524315 0.697279 -16.181890 -0.585903 0.080773 0.292035 32.026760 -0.530480 -16.266106 0.000000 0.000000 0.000000 -4.689694 -9.504078 -4.598186 14.440172 -2.363219 -7.700906 9.546740 -7.050101 8.170943 2.078842 9.125160 -12.041429 0.000000 0.000000 0.000000 0.000000 0.000000 0.000000 -13.903174 9.620611 0.435510 16.666505 -12.113375 1.387144 11.990444 2.908462 4.063842 1.227146 5.918008 -8.848274 0.000000 0.000000 0.000000 0.000000 0.000000 0.000000 4.153601 -2.078961 -18.318833 -18.241515 -18.725998 -0.607379 99.050561 37.728935 -153.357650 0.000000 0.000000 0.000000 -11.080153 0.940529 -16.662491 4.194418 -1.982748 0.465955 51.717769 -39.301058 38.768741 0.000000 0.000000 0.000000
-51.088247 83.589911 385.531852 12.109320 4.902851 -6.030291 -2.892644 -0.036361 5.840387 -0.650894 0.220438 0.357960 34.040512 -2.104594 -16.820882 0.000000 0.000000 0.000000 -5.879876 -14.126324 -5.097275 24.654170 -7.607877 -12.192401 15.799871 -7.911612 10.601017 -5.405981 15.756590 -16.238862 0.000000 0.000000 0.000000 0.000000 0.000000 0.000000 -17.211836 10.011986 0.482254 17.996556 -12.831441 1.187107 12.836778 4.896033 3.821655 3.045822 5.053233 -9.523997 0.000000 0.000000 0.000000 0.000000 0.000000 0.000000 2.609962 -4.687291 4.440234 -16.582933 -21.998777 -1.243213 102.367369 33.940327 -165.978793 0.000000 0.000000 0.000000 -15.686794 -2.773346 4.537883 8.942362 -3.874018 0.869185 51.148471 -39.909712 35.729679 0.000000 0.000000 0.000000
-50.182326 80.743018 385.413272 12.839263 5.684814 -21.589525 -2.955860 -0.845147 21.275650 -0.872958 0.261326 0.364497 32.800621 -1.635975 -16.234616 0.000000 0.000000 0.000000 -6.815085 -19.784274 -3.931120 33.127647 -12.260434 -18.022756 25.120217 -9.801718 8.404100 -15.066983 20.467664 -10.825646 0.000000 0.000000 0.000000 0.000000 0.000000 0.000000 -18.275089 9.214996 0.401937 16.525809 -11.315958 0.181329 14.103760 9.709922 2.693623 3.820163 -0.592172 -7.440370 0.000000 0.000000 0.000000 0.000000 0.000000 0.000000 4.723675 -9.046124 21.134111 -15.978896 -22.246050 -1.596326 98.556245 32.680488 -175.958585 0.000000 0.000000 0.000000 -18.992012 -7.551051 18.825129 14.290158 -5.136003 1.354055 33.795400 -34.775287 20.918696 0.000000 0.000000 0.000000
-49.492256 77.646748 385.358665 12.516127 6.037606 -31.253820 -2.845530 -1.610887 30.893004 -1.304545 0.125363 0.301977 30.187778 0.570521 -15.101368 0.000000 0.000000 0.000000 -6.974432 -28.515802 -0.745484 37.263408 -13.241618 -28.732487 29.563145 -11.967880 0.037930 -23.241099 21.554911 5.671650 0.000000 0.000000 0.000000 0.000000 0.000000 0.000000 -16.354684 7.239755 0.190373 15.224136 -9.771390 -0.132107 10.036134 13.628967 0.937395 5.784234 -5.269180 -4.242897 0.000000 0.000000 0.000000 0.000000 0.000000 0.000000 13.800504 -16.534143 34.453793 -18.365692 -10.437695 -0.104975 110.803121 22.106703 -177.969225 0.000000 0.000000 0.000000 -21.144182 -11.023640 27.418731 19.445860 -6.293955 2.019210 17.574185 -25.128726 6.518431 0.000000 0.000000 0.000000
-49.220973 74.783521 385.388992 11.429844 5.634684 -35.637635 -1.906504 -1.609750 35.429893 -1.634958 0.119430 0.247952 21.708164 5.608418 -12.087083 0.000000 0.000000 0.000000 -7.868810 -40.178037 6.022751 38.207400 -11.996657 -44.808943 18.274172 -10.344016 -24.220094 -17.602555 15.775734 29.525206 0.000000 0.000000 0.000000 0.000000 0.000000 0.000000 -14.079009 4.845882 -0.027488 15.774781 -8.417768 0.173103 5.116082 15.053926 -0.018246 3.956621 -9.493944 -1.502490 0.000000 0.000000 0.000000 0.000000 0.000000 0.000000 26.143107 -22.729345 44.387607 -21.670534 6.373450 3.090000 107.918614 20.932258 -176.103973 0.000000 0.000000 0.000000 -23.307530 -12.240393 31.340213 24.157091 -7.326151 2.768656 15.048292 -22.374412 -1.144687 0.000000 0.000000 0.000000
-48.548117 72.279121 384.885835 10.282558 5.776247 -36.667188 -1.837095 -2.241461 36.460757 -1.753150 -0.017149 0.182492 11.183400 7.598380 -6.821416 0.000000 0.000000 0.000000 -5.557567 -54.634764 17.407047 38.020207 -7.141429 -63.250648 8.885852 -4.535006 -37.268473 -8.199277 13.912217 45.465412 0.000000 0.000000 0.000000 0.000000 0.000000 0.000000 -10.820285 1.616541 -0.155287 17.673592 -7.993590 0.874114 2.218766 14.797844 -0.364056 0.042251 -9.286245 -1.466291 0.000000 0.000000 0.000000 0.000000 0.000000 0.000000 35.539432 -28.452425 51.110297 -22.017725 22.129696 5.443101 101.146658 21.123641 -172.544390 0.000000 0.000000 0.000000 -25.844875 -13.994277 31.820368 28.966382 -7.439773 3.075731 9.182263 -15.359468 -8.436112 0.000000 0.000000 0.000000
-47.252597 70.282568 384.691609 8.370491 4.871320 -34.628034 -1.986255 -2.406301 34.487542 -1.781167 -0.349605 0.089243 7.519764 8.975021 -4.156916 0.000000 0.000000 0.000000 -0.000515 -62.513202 38.651931 39.487407 -6.394638 -81.837261 8.185750 -2.113469 -44.544063 -4.300706 12.421921 57.168258 0.000000 0.000000 0.000000 0.000000 0.000000 0.000000 -4.730207 -3.893007 -0.372855 18.704282 -5.588245 1.322104 -1.433390 17.293875 -1.240332 -7.861886 -12.458037 -0.859107 0.000000 0.000000 0.000000 0.000000 0.000000 0.000000 38.348099 -30.776183 50.818763 -22.791390 29.431307 6.979598 102.290264 18.701972 -170.511783 0.000000 0.000000 0.000000 -29.476700 -13.843009 29.962688 34.023949 -7.337124 3.192334 8.705279 -14.616630 -9.885775 0.000000 0.000000 0.000000
-46.504687 68.899120 384.870531 6.945960 4.698030 -34.269840 -2.023891 -2.419543 34.143249 -1.950516 -0.622719 0.004806 4.837052 10.398317 -1.926237 0.000000 0.000000 0.000000 8.389363 -67.189808 53.159007 40.930095 -5.941325 -92.554230 18.925099 -12.364148 -44.157693 -15.957865 14.024142 57.788210 0.000000 0.000000 0.000000 0.000000 0.000000 0.000000 -1.437649 -6.652495 -0.319767 22.975037 -6.979306 2.433734 -6.538028 23.867259 -2.800058 -9.093223 -13.159965 -1.620349 0.000000 0.000000 0.000000 0.000000 0.000000 0.000000 39.347799 -29.638914 49.735760 -26.440252 31.383059 9.584439 97.937666 20.490060 -167.653558 0.000000 0.000000 0.000000 -31.650831 -13.760782 29.555998 37.433708 -7.845808 3.649799 10.566659 -18.039233 -7.003155 0.000000 0.000000 0.000000
